<svg xmlns="http://www.w3.org/2000/svg" viewBox="0 0 1366 768"><defs><style>.cls-1{fill:#091540;}.cls-2{fill:#e76a4b;}.cls-3{fill:#fcbf49;}.cls-4{fill:#fbe489;}.cls-5{fill:none;stroke:#000;stroke-miterlimit:10;stroke-width:3px;}</style></defs><g id="background"><rect class="cls-1" width="1366" height="768"/><polygon class="cls-2" points="447 0 0 763.88 0 0 447 0"/><rect class="cls-3" x="467" y="208" width="515" height="746" transform="translate(-122.85 200.93) rotate(-14.57)"/><circle class="cls-4" cx="1002.5" cy="131.5" r="235.5"/></g><g id="Layer_11" data-name="Layer 11"><polygon points="773.5 331.5 781.5 334.5 797.88 319.04 806 282.78 801.2 258.44 784.63 231.33 794.34 234.93 806 242.46 792.33 219.63 760.15 197.49 727.72 186.94 680.36 183.21 652.07 187.29 626.53 198.47 608.68 214.03 596.5 234.93 592.24 249.54 582.81 260.63 572.06 276.67 567.25 310.08 572.1 334.5 582.81 354.68 598.5 374 604.21 352.52 611.6 347.11 619.53 347.98 629.6 353.5 634.11 355.87 639 336 652.07 313.67 674 298 698 279 712 263 706.47 280.1 692.98 308.56 678.98 325.28 670.5 332.5 689.69 335.65 710.15 331.5 729.32 315.51 743.49 301.87 751 288.08 757 273 760 258 767 265.75 772.9 282.78 776.93 298.18 778.35 313.67 773.5 331.5"/><polygon points="703.22 418.88 715.04 421.91 726.42 421.91 733.45 420.39 732.66 427.4 730.17 432.71 728.29 434.69 718.33 428.07 706.78 423.12 703.22 422.36 703.22 418.88"/></g><g id="drawing"><path d="M705.05,358.64c-2.86-9.6-11.19-17.58-21.4-18.7s-19.7,7.91-21.06,17.77c-.39,2.86,3.11,4.75,4.85,2.05,4.39-6.8,8.2-15.87,18.19-13,6.83,1.95,12,7.55,15,13.76,1.21,2.5,5.23.75,4.45-1.87Z"/><path d="M752.26,358.55c1-4.24,3-8.53,6.75-11.05,4.92-3.31,9.75-1.63,10.8,4.23a2.13,2.13,0,0,0,3.85.5c3.43-7.34-5.23-13.11-11.88-11.86-8.21,1.54-14,9.46-14.19,17.55-.06,2.67,4,3.26,4.67.63Z"/><path d="M739.74,361.37c-5.19-.31-28.06-3.47-26.88,6.77a1.5,1.5,0,0,0,2.22,1.28c2-.93,3.32-2.51,5.6-3a31.22,31.22,0,0,1,5.63-.37c4.48-.14,9-.09,13.43.08,3.07.12,3-4.57,0-4.75Z"/><path d="M709.16,350.57c2.28,7.89,6,19,.87,26.33-1.7,2.44,1.83,4.51,3.8,2.94,8.12-6.47,2.55-22.82-.24-30.49-1-2.73-5.27-1.66-4.43,1.22Z"/><path d="M713,375.63c-2,.84-3.27,1-5.24,2.2a30.12,30.12,0,0,1-7.13,3.22A53.77,53.77,0,0,1,686,383a137.38,137.38,0,0,1-16.35-.78c-5.79-.61-11.87-3.13-17.63-3-2.41.06-2.8,2.89-1.13,4.18,4.86,3.75,12.82,4.16,18.76,4.82a114.51,114.51,0,0,0,19.33.53,51.09,51.09,0,0,0,15.86-3.13,26.64,26.64,0,0,0,6.85-3.78c2.18-1.73,1.85-2.47,2.86-4.94.4-1-.84-1.52-1.57-1.21Z"/><path d="M710.87,347.14a180.56,180.56,0,0,0-41.55-1.56c-5.55.44-11.43,1-16.69,2.93-3.76,1.37-9.8,3.65-10.51,8.05a1.88,1.88,0,0,0,1.79,2.35c2.18-.14,3.06-1,5-2.1a29.76,29.76,0,0,1,7.61-2.87,103.53,103.53,0,0,1,16.63-2.42,173.14,173.14,0,0,1,37,.94c3,.38,3.73-4.85.72-5.32Z"/><path d="M645.62,353.73c-2.53,2.33-2.12,6.07-2.31,9.29-.23,3.92-.32,7.92.78,11.73,1.66,5.79,6.34,11.43,12.82,11.18a3.22,3.22,0,0,0,2.81-1.61l.47-1.07a2.5,2.5,0,0,0-2.12-3.71c-7-.71-8.8-6.8-9.07-13.06-.17-4.11,1.44-9.45-1.49-12.75a1.35,1.35,0,0,0-1.89,0Z"/><path d="M775.64,342.42c-10.24-1.72-24.29-4.63-31.9,5.08-1.14,1.47-.14,3.83,1.92,3.29,4.4-1.15,7.92-4.15,12.54-5a54.52,54.52,0,0,1,16.48.06c2.25.32,3.27-3.1,1-3.48Z"/><path d="M742.24,348.82c-1.89,6.27-1.17,13.24-.34,19.63.63,4.78,1.84,7.62,6,10.37,1.37.91,2.54-1.23,1.27-2.18-2.91-2.16-3-10.22-3.15-13.18-.17-4.71.37-9.42.19-14.1a2,2,0,0,0-3.92-.54Z"/><path d="M773.25,346c4,8.64,5.22,19.9.29,28.32-.87,1.49.6,3.72,2.38,3.09,6.51-2.32,5.83-10.24,5.24-15.83-.62-5.79-.11-14.28-5.37-18.12-1.66-1.22-3.22,1.06-2.54,2.54Z"/><path d="M775.65,373.69c-5.54.31-11.07.77-16.62,1-4.62.16-9.5-.48-14,0a1.15,1.15,0,0,0-1.08,1.42c.69,4.62,8.07,3.83,11.42,3.81a93.74,93.74,0,0,0,20.86-2.25c2.16-.5,1.73-4-.53-3.92Z"/><path d="M728.4,379.62a18.57,18.57,0,0,0-.29,8.61,22.33,22.33,0,0,0,3.62,7.41,18.36,18.36,0,0,1,1,1.63c.12.22.22.45.34.67a2.33,2.33,0,0,0,.39.59q.4.5,0,.09a2.65,2.65,0,0,1-.5,2c-1.39,1.92-4,2.26-5.33,4.26a1.92,1.92,0,0,0,1.14,2.81c2.67.44,5.63-1.5,7.41-3.39,2.09-2.22,2.45-4.84,2-7.7s-3.18-5-4.34-7.66a13.42,13.42,0,0,1-1-8c.62-2.91-3.74-4.16-4.48-1.24Z"/><path d="M779.35,333.91a168.44,168.44,0,0,0-6,28c-.56,4.61-.92,9.24-1,13.88-.07,2.35-.08,4.71-.05,7.06a53.77,53.77,0,0,0,.43,7.72,2.86,2.86,0,0,0,3.17,2.07,2.92,2.92,0,0,0,2.51-2.84c.1-2.37-.2-4.8-.25-7.19s0-4.7,0-7.06c.11-4.48.38-9,.84-13.41a219.86,219.86,0,0,1,4.66-27.08,2.23,2.23,0,0,0-4.3-1.18Z"/><path d="M773.06,382.5c.36,5.8-.65,11.53-1.66,17.15a84.85,84.85,0,0,1-2.08,8.92q-.6,2-1.32,4.05c-.23.62-.47,1.24-.73,1.86.19-.46,0,0,0,.11-.17.37-.34.75-.52,1.12-5.39,11.39-12.28,22-21.29,30.72a66.25,66.25,0,0,1-7.63,6.42c-2.95,2.11-6.09,3.91-9.13,5.89a3,3,0,0,0-1.22,3.73A3,3,0,0,0,731,464.2c6.43-2.21,12.1-6.52,17.11-11a90.33,90.33,0,0,0,13.21-14.95,120.31,120.31,0,0,0,10-17.13,70.7,70.7,0,0,0,5.75-17.48,65.77,65.77,0,0,0,.87-21.13,2.52,2.52,0,0,0-2.44-2.44,2.46,2.46,0,0,0-2.44,2.44Z"/><path d="M734,459c-3.91-.77-7.87-.5-11.84-.51s-7.82-.1-11.72-.41a67.48,67.48,0,0,1-21.67-5.45,158.41,158.41,0,0,1-19.45-10.18,67.41,67.41,0,0,1-16.16-13.31,40,40,0,0,1-9.09-19.32c-.61-3.47-6.59-2.72-6.21.84,1.61,15,12.72,27,24.73,35.07a150.83,150.83,0,0,0,20.22,11.19,84.22,84.22,0,0,0,11.45,4.55,70.82,70.82,0,0,0,12.23,2.44,100.66,100.66,0,0,0,13.56.58c4.62-.1,9.49-.06,14-1.38,1.9-.57,2.15-3.69,0-4.11Z"/><path d="M635.48,369.32c-.88-9.38-6.1-18.65-14.57-23.21a14,14,0,0,0-14.11.09c-4.29,2.58-7,6.94-8.38,11.66a54.37,54.37,0,0,0-1.75,14.82,62.19,62.19,0,0,0,1.57,14.71c2.15,9.16,7,17.54,14.77,23,8.15,5.71,18.79,7.54,28,3.24a3.14,3.14,0,0,0,1.12-4.27,3.19,3.19,0,0,0-4.27-1.12,19.67,19.67,0,0,1-2.07.73,18.18,18.18,0,0,1-7.6.62l-.7-.07c.08,0,.35.05,0,0l-1.22-.22a29.64,29.64,0,0,1-2.91-.76,23.43,23.43,0,0,1-4.66-2c-6.55-3.67-11-9.71-13.44-17-2.64-7.91-3-16.45-2.05-24.7.42-3.81,1.35-8.08,3.86-11.05,2.2-2.59,5.3-4.31,8.63-3.47,4,1,7.53,4.34,9.9,7.58a28.91,28.91,0,0,1,5.23,12.1c.46,2.65,5,2.07,4.72-.63Z"/><path d="M611.33,369.27c-.65-1.92.17-3.88,2.37-3.95,2.61-.09,4.53,2.06,5.81,4.08a25.93,25.93,0,0,1,3.75,8.57,8.5,8.5,0,0,1-1.55,7.2h4.78c-1.93-4.11-7.11-1.91-9.45.47-2.65,2.71-4.34,6.3-2.43,9.93,3.12,5.95,11.23,9.1,17.62,7.61,2.66-.63,2.14-5-.66-4.84-3.91.26-7.81-.47-10.8-3.19-1.16-1.06-2.84-2.87-2-4.54.68-1.3,2.62-3.61,4.29-3.11l-1.66-2.18a6.27,6.27,0,0,0,0,2,2.78,2.78,0,0,0,4.62,1.22c3.11-3.21,3.57-8.31,2.3-12.42a34.31,34.31,0,0,0-2.84-6.34,28.13,28.13,0,0,0-3.56-5.35c-2.65-3-7-4.9-11-3.4s-6.12,6.29-3.75,10c1.3,2,4.91.78,4.07-1.72Z"/><path d="M646.78,356c-3.29-.62-6.59-1.34-9.84-2.17s-6.41-2-9.65-3a2.85,2.85,0,0,0-1.52,5.5,58.77,58.77,0,0,0,9.94,2.66,75.38,75.38,0,0,0,10.47,1.37c2.48.14,3.08-3.9.6-4.38Z"/><path d="M777.31,313.44a19.84,19.84,0,0,0-19.23-3.81,26,26,0,0,0-9.08,5.18,28.52,28.52,0,0,0-3.45,3.5c-1.33,1.61-2.94,3.43-2.34,5.68a2.56,2.56,0,0,0,3.07,1.74c1.68-.27,2.59-1.91,3.57-3.12a27.58,27.58,0,0,1,3-3.15,21.23,21.23,0,0,1,6.64-4.11,17,17,0,0,1,15.26,1.46c2,1.35,4.42-1.74,2.6-3.37Z"/><path d="M702.63,318a45.64,45.64,0,0,0-22.88-7.1,34.83,34.83,0,0,0-12.1,1.41A25.4,25.4,0,0,0,658,318.4a43.75,43.75,0,0,0-4.06,4.65c-1.32,1.71-3.34,3.81-3.27,6.1a2.73,2.73,0,0,0,3.43,2.62c2.26-.71,3.5-3.13,4.86-4.84a43.07,43.07,0,0,1,4.22-4.73A18.61,18.61,0,0,1,674,317.15,46.26,46.26,0,0,1,700.29,322a2.33,2.33,0,0,0,2.34-4Z"/><path d="M759,260.5a70.27,70.27,0,0,1-8.34,25.67A102.07,102.07,0,0,1,735,308c-11.22,11.91-25.82,21.86-42,24.75a42.89,42.89,0,0,1-11.52.53,20.14,20.14,0,0,1-2.39-.34c-.91-.17-1.8-.38-2.7-.62-1.83-.49-3.64-1.09-5.5-1.48-1.53-.32-3,1.65-1.66,2.85,2.79,2.42,6.58,3.48,10.16,4.06a42.93,42.93,0,0,0,11.15.32,65,65,0,0,0,23.62-7.62A95.84,95.84,0,0,0,753.2,291.3a78.58,78.58,0,0,0,8.85-30.8c.15-2-2.89-1.95-3.1,0Z"/><path d="M671.44,334.1c4.28-2.58,7.54-6,10.9-9.64a154.75,154.75,0,0,0,11.08-12.77A93.94,93.94,0,0,0,702,296.83a156.51,156.51,0,0,0,6.38-15.26c1.26-3.53,2.55-7.05,3.69-10.61.55-1.69,1-3.41,1.55-5.12s1.34-3.66.64-5.55a1.29,1.29,0,0,0-1.87-.75,6.65,6.65,0,0,0-2.51,3.75q-.84,2.29-1.69,4.59c-1.12,3.05-2.12,6.14-3.18,9.22-1.76,5.11-3.64,10.14-5.87,15.07a109.94,109.94,0,0,1-7.84,14.93,114.6,114.6,0,0,1-10.22,12.73c-1.75,2-3.39,4.08-5.22,6a31.72,31.72,0,0,1-6.34,5.08c-2,1.25-.18,4.44,1.88,3.2Z"/><path d="M710.15,262.77c-5.22,6.8-11.73,12.5-18.19,18.09a234,234,0,0,1-20.91,16.21c-7.14,4.88-14.77,9.63-20.77,15.92-5.18,5.43-10.06,11.75-12.87,18.76a50.52,50.52,0,0,0-3.09,11.92c-.5,3.61-.94,7.38.53,10.8.62,1.44,3.27,1.12,3.5-.46.42-3,.41-6,.79-9a50.14,50.14,0,0,1,2.38-10c2.31-6.68,6.88-12.61,11.63-17.75,5.71-6.16,13-10.76,19.88-15.46a232.15,232.15,0,0,0,21.09-16.28,99.85,99.85,0,0,0,19-21c1.22-1.88-1.64-3.4-2.93-1.71Z"/><path d="M758.34,261.76a112.37,112.37,0,0,1,12.58,25.31,87.27,87.27,0,0,1,4,14,49.18,49.18,0,0,1,.33,14.28,53.3,53.3,0,0,1-1.55,7.72c-.76,2.81-2.06,5.55-2.32,8.46-.15,1.75,2.51,2.94,3.64,1.51,1.69-2.18,2.47-4.9,3.24-7.52A60,60,0,0,0,780,318a54,54,0,0,0,.34-15.13,77.42,77.42,0,0,0-3.7-15.06A126.2,126.2,0,0,0,771,273.74a105.15,105.15,0,0,0-8.31-14.5,2.57,2.57,0,0,0-3.42-.9,2.52,2.52,0,0,0-.9,3.42Z"/><path d="M771.72,333.18a10.84,10.84,0,0,0,11,2.56c4.23-1.21,7.6-4.36,10.32-7.69a66.76,66.76,0,0,0,12.06-22.75,75.4,75.4,0,0,0-3-51,81.47,81.47,0,0,0-7-13.2q-2-3.12-4.34-6.06a23,23,0,0,0-5.42-5.08c-1.38-.94-2.86.86-2.16,2.16a39.53,39.53,0,0,0,3.17,5c1.2,1.61,2.4,3.21,3.52,4.87a92.79,92.79,0,0,1,6,10.4,76.46,76.46,0,0,1,7.09,22.6,66.43,66.43,0,0,1-9.6,45.36c-2.31,3.58-5,7.45-8.62,9.85-3,2-7.66,3-10.78.62-1.64-1.28-3.87.75-2.35,2.35Z"/><path d="M782.09,232.46c7.8,1.35,14.3,6.52,19.35,12.38a47.15,47.15,0,0,1,3.65,4.57,37.3,37.3,0,0,1,3,5.4,40.92,40.92,0,0,1,2,5.8c.53,1.95.58,4.64,2,6.18a1.49,1.49,0,0,0,2.33-.3c.94-2.05,0-4.81-.5-6.92a44.23,44.23,0,0,0-2-6.37A46.81,46.81,0,0,0,805,241.27a44.48,44.48,0,0,0-9.79-8.88c-3.6-2.46-8-4.92-12.52-4.46a2.33,2.33,0,0,0-2.26,2,2.27,2.27,0,0,0,1.65,2.53Z"/><path d="M815.12,265.5c-.14-1.89-.24-3.77-.4-5.66a39.49,39.49,0,0,0-1.24-6.25,77.55,77.55,0,0,0-4.55-12.65,93.47,93.47,0,0,0-15.25-23.7c-6.91-7.77-15.38-13.42-24.53-18.27a154.77,154.77,0,0,0-30.78-12.23c-18.71-5.2-38.42-6.84-57.8-6.25C660,181.1,639,186.23,622,198.23c-15.29,10.79-27.79,27.21-30.66,46.05a61.58,61.58,0,0,0-.7,7.29c-.12,3.31,4.91,3.27,5.11,0,1.11-17.92,11.19-34.16,24.82-45.41,14.94-12.34,34.57-18.53,53.69-19.92a213.47,213.47,0,0,1,30,.19A165.06,165.06,0,0,1,730,190.18a151.4,151.4,0,0,1,29.12,9.73c9.32,4.26,18.75,9.27,26.31,16.3a83.36,83.36,0,0,1,16.11,21.1A100.94,100.94,0,0,1,807,249.06c1.48,3.82,2.47,7.76,3.75,11.64a29.46,29.46,0,0,1,1.24,5.23c.25,1.8,3.32,1.39,3.18-.43Z"/><path d="M592.69,249.6c-4.18.92-8.15,3.69-11.2,6.61a44.72,44.72,0,0,0-8,10.61c-4.76,8.62-7.35,18.39-8.53,28.12-2.43,20,2.63,40.2,12.67,57.48A123.38,123.38,0,0,0,586.84,366a78.22,78.22,0,0,0,5.2,6.15c1.84,1.91,3.54,3.77,6.1,4.65a1.35,1.35,0,0,0,1.66-1.66,18.54,18.54,0,0,0-3.66-5.37c-1.46-1.72-2.91-3.47-4.3-5.24a112.66,112.66,0,0,1-7.73-11.17A101.64,101.64,0,0,1,573,328.83a85.48,85.48,0,0,1-3-28.7A75.64,75.64,0,0,1,576.51,273a44.37,44.37,0,0,1,7.27-11.32,32.6,32.6,0,0,1,4.66-4.28,47.31,47.31,0,0,1,6-3.52c2.4-1.29.71-4.8-1.79-4.25Z"/><path d="M594,251.15a18.91,18.91,0,0,0-.76-4.72c-.39-1.6-.66-3.21-.92-4.84a44.67,44.67,0,0,1-.44-9.46,40.09,40.09,0,0,1,1.58-9.09,10.08,10.08,0,0,1,3.83-5.44c1.34-1,.09-2.93-1.26-3-3.46-.28-5.52,3.13-6.6,5.92a35.42,35.42,0,0,0-1.88,10.31,48,48,0,0,0,.61,11c.57,3.37,1.52,7.59,4,10.1a1.11,1.11,0,0,0,1.87-.77Z"/><path d="M595,242.82c.6-2.88-.61-5.51-1.4-8.22a23,23,0,0,1-.8-3.86q-.1-1-.12-2a3.53,3.53,0,0,0-.8-2.56,1.66,1.66,0,0,0-2.32,0c-1.13,1.22-.78,3-.59,4.51a27.14,27.14,0,0,0,.84,4.18,28.8,28.8,0,0,0,1.58,3.91,6.79,6.79,0,0,1,1,3.63c-.14,1.51,2.34,1.84,2.65.36Z"/><path d="M591.6,250.59c-3.08-5.79-10.89-6.75-16.58-5a25.86,25.86,0,0,0-8.7,4.94,33.83,33.83,0,0,0-3.67,3.51c-1.16,1.3-2.25,2.56-2.34,4.37a1.32,1.32,0,0,0,1.31,1.31c2.83-.22,5-3,7.07-4.74a24.84,24.84,0,0,1,6.76-4.29c4.16-1.61,10.22-1.77,13.23,2.11,1.34,1.73,3.86-.47,2.92-2.24Z"/><path d="M734.08,459.13a20.94,20.94,0,0,0,1,12.56,33.29,33.29,0,0,0,8.12,11.68c2.44,2.33,6.16-1.39,3.7-3.7a29.21,29.21,0,0,1-7.07-9.63,21.26,21.26,0,0,1-1.56-10.34c.24-2.41-3.69-2.91-4.22-.57Z"/><path d="M656.18,439.14c.17.93.32,1.87.47,2.81,0,.26.07.52.11.78s.13.92,0,.35c.09.65.17,1.31.24,2a74.4,74.4,0,0,1,.43,8.17,37.69,37.69,0,0,1-.22,4.25c0,.16,0,.33,0,.49-.06.44.07-.46,0,0s-.1.63-.16.95a21,21,0,0,1-.49,2.05c-.08.29-.17.58-.27.86,0,.11-.35.94-.21.6s-.21.45-.26.55c-.14.28-.3.57-.46.84s-.31.47-.46.7c-.26.43,0,0,.08-.08l-.26.31c-.21.23-.41.46-.64.67s-.84.65-.27.27c-.47.31-.94.59-1.44.86l-.38.19c.57-.28.22-.09.08-.05-.37.11-.73.24-1.1.34a9.38,9.38,0,0,0-2.26.75,2.55,2.55,0,0,0-1.07,3.5c1.11,1.87,3.87,1.57,5.64,1.08a11.27,11.27,0,0,0,4.15-2.15c4.46-3.58,5.52-9.92,5.64-15.31a69.27,69.27,0,0,0-2.25-17,2.41,2.41,0,1,0-4.64,1.28Z"/><path d="M710.5,501.51c-19.3-1.59-38.81-9.79-52.67-23.46A75,75,0,0,1,648,465.79a2.5,2.5,0,0,0-4.32,2.52c4.77,9.13,12.87,16.55,21.28,22.3a86.79,86.79,0,0,0,28.53,12.81,71.53,71.53,0,0,0,17,2.07c2.6,0,2.52-3.77,0-4Z"/><path d="M642.52,463.66a142.78,142.78,0,0,1-20.85,11.39c-7.43,3.29-15.07,6.1-22.51,9.38q-11.58,5.1-22.72,11.15a119.16,119.16,0,0,0-18,11.79c-6,4.9-11.87,11.12-15,18.34a3.08,3.08,0,0,0,1.07,4.07,3,3,0,0,0,4.06-1.07,52.9,52.9,0,0,1,5.38-8.25,60.88,60.88,0,0,1,7.25-7.29A100.84,100.84,0,0,1,578,501.84c7.12-4,14.45-7.6,21.88-10.95s15.06-6.15,22.49-9.44a109.53,109.53,0,0,0,22.89-13,2.85,2.85,0,0,0,1-3.76,2.78,2.78,0,0,0-3.77-1Z"/><path d="M728.12,479.4c-2.79-3.37-5.74-6.57-8.83-9.65a72.64,72.64,0,0,0-9.66-8.65c-3.52-2.41-8-3.51-11.84-1.25a16,16,0,0,0-6.61,7.6,8.63,8.63,0,0,0,.71,7.6,25.36,25.36,0,0,0,3.83,4.12q5.25,4.89,10.83,9.4c2.54,2.05,5.13,4,7.74,6a2.4,2.4,0,0,0,3.28-.86,2.45,2.45,0,0,0-.86-3.28l0,0c.45.36.45.35-.07-.05-.18-.14.61.47.15.11l-1.14-.89-3.77-3c-3.42-2.72-6.81-5.48-10.06-8.4a43.22,43.22,0,0,1-4.07-4c-.27-.3-.53-.62-.78-.94l-.32-.4,0,0c-.15-.23-.31-.45-.45-.68s-.11-.21-.17-.3c-.26-.4.14.17.09.2a11.16,11.16,0,0,1-.18-1.51,4.82,4.82,0,0,1,.4-1.62,8.9,8.9,0,0,1,1.9-2.53,7.28,7.28,0,0,1,3.43-2.45,6,6,0,0,1,4.08.89c3.64,2,6.67,5.36,9.62,8.25,3.22,3.16,6.34,6.43,9.39,9.75a2.4,2.4,0,1,0,3.4-3.39Z"/><path d="M728.28,479.87A34.3,34.3,0,0,0,710,501.2c-3,10-1.25,20.16-.34,30.29q.4,4.56.82,9.11c.13,1.41.29,2.83.46,4.24s.15,3.24,1,4.57a1.82,1.82,0,0,0,3.28-.43,7.75,7.75,0,0,0,.12-3.49c-.12-1.33-.21-2.66-.33-4-.22-2.5-.45-5-.67-7.5-.43-4.9-.92-9.8-1.38-14.7-.85-9.22.5-18.95,6.07-26.58a29.91,29.91,0,0,1,11.35-9.24,2.11,2.11,0,0,0,.75-2.86,2.15,2.15,0,0,0-2.86-.75Z"/><path d="M749.67,488.75c-2-3.41-5.38-5.72-8.93-7.32a28.72,28.72,0,0,0-5.83-2c-2-.42-4.46-.91-6.31.17a2.2,2.2,0,0,0,.52,4,9.38,9.38,0,0,0,2.53.26c.43,0,.86.05,1.29.1s-.56-.11.2,0l.62.11a26.73,26.73,0,0,1,4.87,1.49,42.51,42.51,0,0,1,4.72,2.49,19.06,19.06,0,0,1,3.68,2.72,1.69,1.69,0,0,0,2.64-2Z"/><path d="M764.34,500.5a12.26,12.26,0,0,0-1-5.33,10.17,10.17,0,0,0-5.3-5.05,18.28,18.28,0,0,0-8.17-1.6c.24,0,.14.1.07.11a4.41,4.41,0,0,1-.62-.09,6.6,6.6,0,0,0-.77,0c-3,.15-6,1.59-8.51,3.11a48.59,48.59,0,0,0-11.85,9.66c-1.14,1.33-4.08,4.72-2.08,6.55l-.56-1.37v0c0,2.49,3.83,2.49,3.86,0v0l-1,1.67c1.07-.64,1.56-2.44,2.27-3.4a16.35,16.35,0,0,1,1.06-1.27c.62-.69,1.28-1.35,2-2a55.45,55.45,0,0,1,5.8-4.79,24.87,24.87,0,0,1,8.56-4.24c.49-.12-.13,0,.13,0l.42,0a3.53,3.53,0,0,0,.65,0c.3-.08-1.36,0,.18,0a17.17,17.17,0,0,1,3.65.14c2.31.48,4.85,1.22,6.31,3.22a8.39,8.39,0,0,1,1.16,2.84c0,.1.09.53,0,.12a2.67,2.67,0,0,1,0,.4c0,.45,0,.9,0,1.35a1.84,1.84,0,0,0,3.68,0Z"/><path d="M747.2,514.71a83.56,83.56,0,0,0,6.33-7.1c1.75-2.19,3.56-4.17,6.3-5.09,1.89-.64,3.7-.71,5.33.56a7.28,7.28,0,0,1,1.92,2.35c.63,1.17.74,2.55,1.52,3.65a1.65,1.65,0,0,0,3-.39c1-2.72-1.24-6.58-3.25-8.34a9,9,0,0,0-8-2.12,14.81,14.81,0,0,0-8.31,5.13c-2.4,3-4.57,6.11-7.19,8.94-1.47,1.61.85,4,2.41,2.41Z"/><path d="M769.79,507.53a24,24,0,0,0-7.86,6.06,25.17,25.17,0,0,0-2.77,4.22c-.46.9-.89,1.83-1.27,2.77a7.71,7.71,0,0,0-.76,3.14,2,2,0,0,0,1.25,1.86,2,2,0,0,0,2.22-.42,9.92,9.92,0,0,0,1.51-3l.45-1.19c0-.1.25-.59.09-.23.08-.18.16-.37.25-.55a24.77,24.77,0,0,1,2.29-4l.16-.21c-.12.16-.14.18-.05.06l.34-.42c.23-.27.47-.54.72-.8a20.45,20.45,0,0,1,1.58-1.51l.43-.35.22-.18c-.12.1-.13.1,0,0l.95-.68q1.07-.72,2.19-1.35a1.9,1.9,0,1,0-1.92-3.27Z"/><path d="M711.76,548.5c-.08,6.89,4.68,12.5,10.46,15.69A65.22,65.22,0,0,0,733.81,569a50,50,0,0,0,12.08,2.52,24.26,24.26,0,0,0,6.64-.44c2.06-.44,4.68-1.24,5.82-3.14a1.58,1.58,0,0,0-1.35-2.35c-1.66.06-3.18,1-4.79,1.34a20.61,20.61,0,0,1-5.08.49,39.64,39.64,0,0,1-10.23-1.84c-6.11-1.78-12.77-4.05-17.42-8.59a12.58,12.58,0,0,1-4.24-8.51,1.74,1.74,0,0,0-3.48,0Z"/><path d="M638.45,545.67c.87,3.92.14,7.83-.12,11.77-.28,4.3-.32,8.63-.18,12.94a104.24,104.24,0,0,0,1.33,12.84c.6,3.77.9,8.65,3.64,11.57a1.42,1.42,0,0,0,2.4-1,28.47,28.47,0,0,0-.5-5.89q-.42-3-.71-6.08c-.39-4.21-.63-8.44-.79-12.67s-.06-8.44.05-12.67c.1-4,.16-8.09-1-12-.78-2.66-4.74-1.55-4.14,1.14Z"/><path d="M626.37,546.93c3.83,20.29,10.86,40,19.19,58.87,1.19,2.69,2.4,5.37,3.7,8,.62,1.25,1.25,2.49,1.88,3.73a14.83,14.83,0,0,0,2.73,3.78c1.39,1.45,3.38-.09,3.1-1.8a13.22,13.22,0,0,0-1.06-3.69l-1.65-3.6c-1-2.33-2.11-4.66-3.15-7q-3.06-6.9-5.81-13.93c-3.72-9.53-7.1-19.18-10-29-1.63-5.49-3.28-11-4.86-16.49-.76-2.64-4.57-1.52-4.07,1.12Z"/><path d="M711.12,547.69c-3.34,4.53-6.75,9-10.12,13.49s-6.69,9-10.15,13.38c-7,8.94-14.33,17.68-21.7,26.33-5.81,6.82-11.55,13.73-17.61,20.32-3.19,3.48-6.58,6.84-9.63,10.45a23.84,23.84,0,0,0-4.17,8.77,78.25,78.25,0,0,0-2.24,11c-.28,2-.36,4-.54,6A2.56,2.56,0,0,0,637.5,660,2.6,2.6,0,0,0,640,657.5c0-.14-.13.89,0,.29,0-.32.09-.63.14-.95.08-.47.2-.93.28-1.4.05-.3.08-.61.12-.91l0,.14.15-1.06c.46-3.19,1.05-6.37,1.82-9.49a44,44,0,0,1,1.44-4.83c.06-.17.12-.34.19-.5,0,0,.3-.75.15-.39l.11-.25c.08-.18.17-.37.26-.55a17.25,17.25,0,0,1,1-1.78c.4-.66-.17.11.24-.34l1.06-1.16,2.63-2.86,4.78-5.21c5.88-6.43,11.47-13.13,17.11-19.76,7.27-8.56,14.46-17.17,21.34-26,3.84-5,7.67-9.94,11.26-15.08a165.7,165.7,0,0,0,9.82-16.06,1.6,1.6,0,0,0-2.76-1.62Z"/><path d="M753.18,582.3c-5.94,16.82-12.55,33.41-19.46,49.85s-14.2,32.58-21.54,48.76c-3.3,7.28-6.41,14.62-9.63,21.93A112.2,112.2,0,0,1,691.63,723a46.52,46.52,0,0,1-16.13,14.45,37,37,0,0,1-21,4.21,45.49,45.49,0,0,1-20.15-7.38c-6.41-4.18-11.42-9.91-15.87-16.08-1.23-1.72-2.42-3.45-3.68-5.14a2.07,2.07,0,0,0-3.58,2.09,53.53,53.53,0,0,0,7.06,10.88,60.74,60.74,0,0,0,8.22,8.67,53.24,53.24,0,0,0,20.39,10.86,42,42,0,0,0,23.42-.24,47.7,47.7,0,0,0,19.76-12.11c11.25-11.48,16.75-27,23.08-41.39,7.35-16.74,15-33.33,22.16-50.15,7.25-17.05,14.14-34.26,20-51.84.71-2.13,1.41-4.27,2.1-6.4.87-2.71-3.29-3.8-4.22-1.17Z"/><path d="M545.88,521.61c-3.89,5.58-5.37,12.73-5.82,19.42a71.93,71.93,0,0,0,2.12,21.07c1.64,7.06,4,13.92,6.33,20.77q3.38,9.9,7,19.71a648.4,648.4,0,0,0,33.29,75.53c3.54,6.76,7.18,13.49,11,20.09,4,6.83,8,13.85,12.89,20.1a2.52,2.52,0,0,0,3.34.19,2.56,2.56,0,0,0,.65-3.27c-3-6.18-6.82-12-10.2-18.05s-6.72-11.88-9.93-17.91q-9.46-17.7-17.8-36t-15.39-36.83c-4.93-12.84-9.81-25.82-13.65-39.05-2.16-7.46-3.8-15.11-3.77-22.91a49.64,49.64,0,0,1,1-10.39,63.61,63.61,0,0,1,3.49-10.55,2.51,2.51,0,0,0-1.46-3,2.57,2.57,0,0,0-3.15,1Z"/><path d="M853.35,462.6c-18.16,1.89-36.43,2.86-54.51,5.58q-3.81.58-7.6,1.27a51.69,51.69,0,0,0-7.4,1.64,2.52,2.52,0,0,0-1.8,2.74A2.47,2.47,0,0,0,784.5,476c4.52-.5,9-1.7,13.49-2.41s8.77-1.27,13.17-1.77c9.05-1,18.14-1.77,27.21-2.59,5-.45,10-1,15-1.63a2.58,2.58,0,0,0,2.5-2.5,2.51,2.51,0,0,0-2.5-2.5Z"/><path d="M781.41,474.92c-1,4.2-2.28,8.35-3.44,12.5-2.49,8.89-4.87,17.81-7.29,26.73L762,546c-2.53,9.29-4.91,18.61-7.36,27.92-1.3,4.93-2.71,9.85-3.85,14.81,0,.16-.08.32-.11.48a3,3,0,0,0,2,3.59,191.37,191.37,0,0,0,48.14,7.37,127,127,0,0,0,14.6-.28,2.4,2.4,0,0,0,0-4.8c-8.2-.68-16.44-.58-24.64-1.28a187.11,187.11,0,0,1-22.62-3.19c-4.69-1-9.33-2.14-13.93-3.45l2,3.59c.89-4.22,2.12-8.39,3.21-12.56q3.48-13.41,7-26.8c2.8-10.64,5.48-21.32,8.21-32,2.38-9.33,4.84-18.64,7.11-28,1.21-4.95,2.53-9.9,3.58-14.89,0-.16.07-.31.1-.47.52-2.71-3.55-3.9-4.18-1.16Z"/><path d="M790.72,472.11c0-.16.37-1.77.56-1.8-.07,0-.23.5,0,0,.05-.09.09-.18.13-.26a7.74,7.74,0,0,1,.43-.73,2,2,0,0,1,.22-.32c.06,0-.47.5-.06.12.14-.13.28-.28.43-.41.47-.44-.52.31,0,0l.57-.33c.4-.23-.7.26-.27.11l.3-.1a4,4,0,0,1,.49-.15c.32-.08.84,0-.14,0,.2,0,.4,0,.61,0s.42,0,.62,0c.37,0-.91-.17-.15,0,.39.08.75.24,1.13.34-1-.26-.34-.14,0,0q.24.12.48.27l.47.29c.29.2.79.73,0,0,.29.28.62.53.91.83.13.14.25.28.37.43s.25.51-.2-.28a2.75,2.75,0,0,0,.19.28c.23.34.41.7.61,1.06s-.29-.73-.16-.39l.09.26c.08.21.14.42.2.63s.16.94.06.23,0,.07,0,.24a5.19,5.19,0,0,1,0,.56c0,.18-.05.36-.05.54,0-.84.07-.44,0-.13a13.89,13.89,0,0,1-.64,2.29c-.11.28-.25.21.11-.27a5.77,5.77,0,0,0-.32.66,10.63,10.63,0,0,1-.53.93l-.26.36q-.21.3.24-.3a2.85,2.85,0,0,1-.23.26,8.38,8.38,0,0,1-.74.72c-.47.43.64-.43.11-.09l-.43.29-.45.24c-.3.14-.21.1.27-.11l-.33.11a3.13,3.13,0,0,0,1.66,6c3.85-.89,6.45-4.42,7.42-8.08a11,11,0,0,0-.82-8.47c-2.43-4.26-8.09-7-12.75-4.69-2.77,1.39-4.21,4.69-4.6,7.6a2.36,2.36,0,0,0,1.61,2.83,2.33,2.33,0,0,0,2.83-1.61Z"/><path d="M806.72,469.11c0-.16.37-1.77.56-1.8-.07,0-.23.5,0,0,.05-.09.09-.18.13-.26a7.74,7.74,0,0,1,.43-.73,2,2,0,0,1,.22-.32c.06,0-.47.5-.06.12.14-.13.28-.28.43-.41.47-.44-.52.31,0,0l.57-.33c.4-.23-.7.26-.27.11l.3-.1a4,4,0,0,1,.49-.15c.32-.08.84,0-.14,0,.2,0,.4,0,.61,0s.42,0,.62,0c.37,0-.91-.17-.15,0,.39.08.75.24,1.13.34-1-.26-.34-.14,0,0q.24.12.48.27l.47.29c.29.2.79.73,0,0,.29.28.62.53.91.83.13.14.25.28.37.43s.25.51-.2-.28a2.75,2.75,0,0,0,.19.28c.23.34.41.7.61,1.06s-.29-.73-.16-.39l.09.26c.08.21.14.42.2.63s.16.94.06.23,0,.07,0,.24a5.19,5.19,0,0,1,0,.56c0,.18-.05.36-.05.54,0-.84.07-.44,0-.13a13.89,13.89,0,0,1-.64,2.29c-.11.28-.25.21.11-.27a5.77,5.77,0,0,0-.32.66,10.63,10.63,0,0,1-.53.93l-.26.36q-.21.3.24-.3a2.85,2.85,0,0,1-.23.26,8.38,8.38,0,0,1-.74.72c-.47.43.64-.43.11-.09l-.43.29-.45.24c-.3.14-.21.1.27-.11l-.33.11a3.13,3.13,0,0,0,1.66,6c3.85-.89,6.45-4.42,7.42-8.08a11,11,0,0,0-.82-8.47c-2.43-4.26-8.09-7-12.75-4.69-2.77,1.39-4.21,4.69-4.6,7.6a2.36,2.36,0,0,0,1.61,2.83,2.33,2.33,0,0,0,2.83-1.61Z"/><path d="M821.72,467.11c0-.16.37-1.77.56-1.8-.07,0-.23.5,0,0,.05-.09.09-.18.13-.26a7.74,7.74,0,0,1,.43-.73,2,2,0,0,1,.22-.32c.06,0-.47.5-.06.12.14-.13.28-.28.43-.41.47-.44-.52.31,0,0l.57-.33c.4-.23-.7.26-.27.11l.3-.1a4,4,0,0,1,.49-.15c.32-.08.84,0-.14,0,.2,0,.4,0,.61,0s.42,0,.62,0c.37,0-.91-.17-.15,0,.39.08.75.24,1.13.34-1-.26-.34-.14,0,0q.24.12.48.27l.47.29c.29.2.79.73,0,0,.29.28.62.53.91.83.13.14.25.28.37.43s.25.51-.2-.28a2.75,2.75,0,0,0,.19.28c.23.34.41.7.61,1.06s-.29-.73-.16-.39l.09.26c.08.21.14.42.2.63s.16.94.06.23,0,.07,0,.24a5.19,5.19,0,0,1,0,.56c0,.18-.05.36-.05.54,0-.84.07-.44,0-.13a13.89,13.89,0,0,1-.64,2.29c-.11.28-.25.21.11-.27a5.77,5.77,0,0,0-.32.66,10.63,10.63,0,0,1-.53.93l-.26.36q-.21.3.24-.3a2.85,2.85,0,0,1-.23.26,8.38,8.38,0,0,1-.74.72c-.47.43.64-.43.11-.09l-.43.29-.45.24c-.3.14-.21.1.27-.11l-.33.11a3.13,3.13,0,0,0,1.66,6c3.85-.89,6.45-4.42,7.42-8.08a11,11,0,0,0-.82-8.47c-2.43-4.26-8.09-7-12.75-4.69-2.77,1.39-4.21,4.69-4.6,7.6a2.36,2.36,0,0,0,1.61,2.83,2.33,2.33,0,0,0,2.83-1.61Z"/><path d="M836.72,465.11c0-.16.37-1.77.56-1.8-.07,0-.23.5,0,0,.05-.09.09-.18.13-.26a7.74,7.74,0,0,1,.43-.73,2,2,0,0,1,.22-.32c.06,0-.47.5-.06.12.14-.13.28-.28.43-.41.47-.44-.52.31,0,0l.57-.33c.4-.23-.7.26-.27.11l.3-.1a4,4,0,0,1,.49-.15c.32-.08.84,0-.14,0,.2,0,.4,0,.61,0s.42,0,.62,0c.37,0-.91-.17-.15,0,.39.08.75.24,1.13.34-1-.26-.34-.14,0,0q.24.12.48.27l.47.29c.29.2.79.73,0,0,.29.28.62.53.91.83.13.14.25.28.37.43s.25.51-.2-.28a2.75,2.75,0,0,0,.19.28c.23.34.41.7.61,1.06s-.29-.73-.16-.39l.09.26c.08.21.14.42.2.63s.16.94.06.23,0,.07,0,.24a5.19,5.19,0,0,1,0,.56c0,.18-.05.36-.05.54,0-.84.07-.44,0-.13a13.89,13.89,0,0,1-.64,2.29c-.11.28-.25.21.11-.27a5.77,5.77,0,0,0-.32.66,10.63,10.63,0,0,1-.53.93l-.26.36q-.21.3.24-.3a2.85,2.85,0,0,1-.23.26,8.38,8.38,0,0,1-.74.72c-.47.43.64-.43.11-.09l-.43.29-.45.24c-.3.14-.21.1.27-.11l-.33.11a3.13,3.13,0,0,0,1.66,6c3.85-.89,6.45-4.42,7.42-8.08a11,11,0,0,0-.82-8.47c-2.43-4.26-8.09-7-12.75-4.69-2.77,1.39-4.21,4.69-4.6,7.6a2.36,2.36,0,0,0,1.61,2.83,2.33,2.33,0,0,0,2.83-1.61Z"/><path d="M781.45,474.41c1.51,8.4,3.82,16.56,6.16,24.77s4.74,16.4,7.11,24.6c4.73,16.42,9.32,32.9,12.84,49.62,2,9.26,3.49,18.6,4.81,28,.23,1.58,2.15,2.54,3.56,2.32a3.2,3.2,0,0,0,2.81-3.18c-1.67-16.93-5.62-33.62-10-50-4.43-16.66-9.52-33.14-14.39-49.68-2.73-9.24-5.25-18.52-8.34-27.64a2.38,2.38,0,0,0-4.59,1.27Z"/><path d="M814.6,604.16c5.89.91,11.9-.34,17.64-1.67,5.42-1.25,10.78-2.75,16.11-4.34,10.63-3.17,21.09-6.88,31.38-11,6.15-2.49,12.36-5,18.28-8,3-1.51.87-6.73-2.3-5.46-5.35,2.14-10.6,4.51-15.93,6.7q-7.59,3.12-15.33,5.92c-10.23,3.69-20.62,6.76-31.12,9.59-3.06.82-6.12,1.62-9.22,2.28s-6.31,1.15-9.51,1.61c-2.21.32-2.19,4.11,0,4.44Z"/><path d="M898.82,576.48c-2.48-7.2-5.74-14.16-8.48-21.27-2.85-7.41-5.51-14.88-8.1-22.38-5.24-15.19-10.26-30.45-16-45.44q-2.41-6.25-5-12.43c-1.68-4-3.1-8.57-6.61-11.26-1.33-1-3.1.38-3.14,1.8a13.32,13.32,0,0,0,1.45,5.86c.74,1.74,1.5,3.46,2.25,5.2,1.5,3.46,2.92,7,4.3,10.48,2.91,7.38,5.61,14.84,8.25,22.33,5.3,15,10.42,30.11,16.22,45,1.61,4.14,3.25,8.3,5,12.37a91.15,91.15,0,0,0,5.78,11.52c1.3,2.07,5,.77,4.11-1.73Z"/><path d="M803.63,600.34c-.78,4.92-.3,10.09-.19,15.07.11,5.38.22,10.76.36,16.14.32,11.58.62,23.15,1,34.73.7,23.83,1.52,47.67,3,71.48.37,6.17.79,12.34,1.3,18.5.24,2.84.55,5.67.86,8.5.17,1.56.38,3.11.6,4.65a12.53,12.53,0,0,0,1.33,4.08,2,2,0,0,0,3.57-.47c.7-2.53.46-5,.29-7.6s-.35-4.95-.51-7.42c-.34-5.44-.76-10.88-1.11-16.32-.74-11.63-1.32-23.28-1.81-34.92-1-23.83-1.66-47.67-2.32-71.51q-.24-9-.58-18c-.11-2.8-.21-5.6-.32-8.4a46.09,46.09,0,0,0-.87-8.55c-.5-2.15-4.14-2.33-4.52,0Z"/><path d="M807.36,689.47c-1.71,16.47-6.41,32.54-11.28,48.31-.7,2.27-1.37,4.56-2.06,6.84s-1.52,4.56-1,7a1.76,1.76,0,0,0,2.9.77c1.68-1.52,2.32-3.64,3.08-5.71s1.41-3.89,2.1-5.84c1.43-4,2.78-8.14,4-12.25a183,183,0,0,0,5.49-24.56,123.06,123.06,0,0,0,1.13-14.6c0-2.79-4-2.67-4.26,0Z"/><path d="M605.6,706.23c2.32,13.65,1.61,27.47.94,41.23q-1.06,21.67-1.94,43.37c-.16,4-.26,8-.38,12a110.2,110.2,0,0,0,0,12.46,2.53,2.53,0,0,0,2.17,2.46,2.47,2.47,0,0,0,2.74-1.79c1.24-7.27,1.28-14.76,1.71-22.11s.71-14.62,1.05-21.93c.66-14.37,1.69-28.8,1.65-43.19,0-8-.63-16.13-2.81-23.87a2.64,2.64,0,0,0-5.09,1.4Z"/><path d="M822.63,599.78c-.81,1.1-.71,2.78-.75,4.1,0,1.48,0,3,.08,4.47.08,2.58.18,5.16.27,7.74q.18,5.32.39,10.65c.17,4.3.32,8.6.59,12.89.12,1.86.21,3.73.37,5.59.1,1.27.17,2.54.34,3.81.1.7.16,1.44.31,2.14a5.43,5.43,0,0,0,1.18,2,1.4,1.4,0,0,0,2.39,0,8,8,0,0,0,1-1.55,9.39,9.39,0,0,0,.23-2c.08-1.23.09-2.45.09-3.68,0-1.76,0-3.52-.06-5.28,0-2.34-.12-4.67-.23-7q-.39-7.93-.72-15.89c-.13-3-.24-5.95-.37-8.92-.07-1.49-.13-3-.24-4.47-.14-1.73-.19-3.7-1.36-5-1-1.18-2.68-.61-3.46.44Z"/><path d="M877.09,584a68.75,68.75,0,0,0,1.37,11.24c.65,3.94,1.47,7.85,2.28,11.76,1.69,8.21,3.5,16.41,5.07,24.65a222.49,222.49,0,0,1,3.44,23.54c.59,7.31.54,14.55-1.17,21.62a47,47,0,0,1-8.07,17.5c-.41.55-.61.8-1.18,1.48s-1,1.15-1.52,1.71a40,40,0,0,1-3.26,3.12,26.19,26.19,0,0,1-3.16,2.4,38.24,38.24,0,0,1-3.76,2.22,31.49,31.49,0,0,1-7.65,2.76c-.7.16-1.41.29-2.12.41-.14,0-1,.15-.5.08l-1.15.13a35.38,35.38,0,0,1-4.37.12,37.38,37.38,0,0,1-16.21-4.61,44.45,44.45,0,0,1-13.67-11.25,45.83,45.83,0,0,1-5.34-8.26,52.17,52.17,0,0,1-2.2-4.74c-.73-1.83-1.22-3.73-1.92-5.56s-1.57-3.88-2.16-5.91a1.4,1.4,0,0,0-2.73.37,54.42,54.42,0,0,0,.44,6.76,35.69,35.69,0,0,0,1.57,5.66,51.22,51.22,0,0,0,4.9,10.5,49.76,49.76,0,0,0,14,14.76c10.51,7.29,23.82,10.42,36.17,6.32,12.86-4.27,22.3-14.83,27.19-27.21,5.92-15,4.06-31.34,1.48-46.85-2.79-16.75-6.95-33.24-10.21-49.91-.36-1.83-.72-3.61-1.25-5.4a2.22,2.22,0,0,0-4.34.59Z"/><path d="M732.87,418c-9.68,5-20.82,1.15-30.35-2.19a1.87,1.87,0,0,0-2.34,1.78c-.54,6.62,1.12,14.94,6.41,19.38,4.73,4,11.64,4.33,17.33,2.4a16.75,16.75,0,0,0,10.52-10.89,22.19,22.19,0,0,0,1.07-9c-.21-2.23-3.73-2.25-3.51,0a12.84,12.84,0,0,1,0,1.86c0,.67-.08,1.34-.16,2,0,.26,0-.19,0,.3l-.09.57c-.08.42-.17.85-.27,1.27-1,4-3.06,7.38-6.84,9.32-4.39,2.25-10.64,2.6-14.76-.17-3.12-2.11-4.68-5.88-5.45-9.67a19.7,19.7,0,0,1-.41-2.66c-.08-.81-.13-1.63-.15-2.45a22,22,0,0,1,0-2.3l-2.35,1.79c10.59,3.64,22.5,7.24,33.11,1.65C736.65,420,734.87,417,732.87,418Z"/><path d="M736,471.61c-.06,2,2.5,3,4,3.49,1.9.62,3.84,1.12,5.77,1.62,4.11,1.07,8.21,2.28,12.36,3.23a95.71,95.71,0,0,0,12.4,1.92q3.17.3,6.34.32c2,0,4.44.22,6.25-.85a2.13,2.13,0,0,0,0-3.65c-1.88-1-4.19-.75-6.25-.84s-4.23-.25-6.34-.43a83.31,83.31,0,0,1-11.76-1.81c-4.17-1-8.29-2.14-12.46-3.1-1.89-.44-3.76-1-5.64-1.44-1.55-.38-4.63-.85-4.7,1.54Z"/><path d="M743.76,475c.12,1.07.21,2.14.33,3.2,0,.4.1.8.17,1.2.1.68,0-.47,0,.15s.12,1,.16,1.55a20.29,20.29,0,0,1,0,2.81c0,.25,0,.49-.06.74-.09.8.1-.5,0,.12s-.19,1-.32,1.41a3.07,3.07,0,1,0,5.92,1.64,18.37,18.37,0,0,0,.27-6.61,34.15,34.15,0,0,0-.62-3.64c-.27-1.09-.66-2.16-1-3.23a2.51,2.51,0,0,0-2.72-1.78,2.44,2.44,0,0,0-2.15,2.44Z"/><path d="M699.35,568.55l.14.45.1-.7c-1.06,1.82.75,3.81,1.84,5.18s2.5,2.64,3.71,4a30,30,0,0,0,10.38,7.18A64.91,64.91,0,0,0,741,590.53a58.77,58.77,0,0,0,7.27-.3,25.87,25.87,0,0,0,7.66-1.57c2.09-.88.93-4.15-1.11-4.11s-3.93.5-5.91.71-4.13.34-6.19.37a58.69,58.69,0,0,1-11.91-1,61.74,61.74,0,0,1-11.47-3.41,54.08,54.08,0,0,1-5.43-2.6,18.91,18.91,0,0,1-4.57-3.08c-1.36-1.37-2.69-2.72-4.14-4a24.47,24.47,0,0,1-2.12-2.08c-.78-.85-1.44-1.65-2.68-1.58l.64.26-.32-.34a.81.81,0,0,0-1.34.78Z"/><ellipse cx="756" cy="360.25" rx="5" ry="9.75"/><ellipse cx="695.85" cy="362" rx="6.15" ry="12"/><path class="cls-5" d="M728.29,434.69A48.24,48.24,0,0,0,715,426c-3.82-1.66-7.9-2.71-11.82-4.13"/></g></svg>